# xmcd
#
# Track frame offsets:
#	150
#	26700
#	41260
#	54990
#	83414
#	117680
#	130698
#	143045
#	161070
#
# Disc length: 2376 seconds
#
# Revision: 1
# Processed by: cddbd v1.5.2PL0 Copyright (c) Steve Scherf et al.
# Submitted via: audiograbber 1.83.01
#
DISCID=6e094609
DTITLE=stevie ray vaughan - in the beginning
DYEAR=1900
DGENRE=
TTITLE0=in the open
TTITLE1=slide thing
TTITLE2=they call me guitar hurircane
TTITLE3=All you love I miss lovin
TTITLE4=tin pan alley
TTITLE5=love struck baby
TTITLE6=tell me
TTITLE7=shake for me
TTITLE8=live another day
EXTD=
EXTT0=
EXTT1=
EXTT2=
EXTT3=
EXTT4=
EXTT5=
EXTT6=
EXTT7=
EXTT8=
PLAYORDER=
